HIERARCHY
ROOT hip
{
  OFFSET 0 90.174 2.4664
  CHANNELS 6 Xposition Yposition Zposition Zrotation Xrotation Yrotation
  JOINT abdomen
  {
    OFFSET 0 -1.186 -1.5018
    CHANNELS 6 Xposition Yposition Zposition Zrotation Xrotation Yrotation
    JOINT abdomen2
    {
      OFFSET 0 9.964 0.2134
      CHANNELS 6 Xposition Yposition Zposition Zrotation Xrotation Yrotation
      JOINT chest
      {
        OFFSET 0 13.134 -3.2573
        CHANNELS 6 Xposition Yposition Zposition Zrotation Xrotation Yrotation
        JOINT neck
        {
          OFFSET 0 20.686 -1.6905
          CHANNELS 6 Xposition Yposition Zposition Zrotation Xrotation Yrotation
          JOINT head
          {
            OFFSET 0 7.238 -0.1237
            CHANNELS 6 Xposition Yposition Zposition Zrotation Xrotation Yrotation
            End Site
            {
              OFFSET 0 0 0
            }
          }
        }
        JOINT lCollar
        {
          OFFSET 1.7069 20.075 5.0056
          CHANNELS 6 Xposition Yposition Zposition Zrotation Xrotation Yrotation
          JOINT lShldr
          {
            OFFSET 13.6458 -0.047 -4.849
            CHANNELS 6 Xposition Yposition Zposition Zrotation Xrotation Yrotation
            JOINT lForeArm
            {
              OFFSET 28.3255 -0.9759 2.2888
              CHANNELS 6 Xposition Yposition Zposition Zrotation Xrotation Yrotation
              JOINT lHand
              {
                OFFSET 22.1583 -0.53 10.8316
                CHANNELS 6 Xposition Yposition Zposition Zrotation Xrotation Yrotation
                JOINT lThumb1
                {
                  OFFSET 0.786 0.112 2.5817
                  CHANNELS 6 Xposition Yposition Zposition Zrotation Xrotation Yrotation
                  JOINT lThumb2
                  {
                    OFFSET 0.3601 -0.878 4.2331
                    CHANNELS 6 Xposition Yposition Zposition Zrotation Xrotation Yrotation
                    JOINT lThumb2_End
                    {
                      OFFSET 1.8127 -1.216 2.2227
                      CHANNELS 6 Xposition Yposition Zposition Zrotation Xrotation Yrotation
                      End Site
                      {
                        OFFSET 0.0181 -0.0122 0.0222
                      }
                    }
                  }
                }
                JOINT lCarpal1
                {
                  OFFSET 0.9571 1.114 1.7695
                  CHANNELS 6 Xposition Yposition Zposition Zrotation Xrotation Yrotation
                  JOINT lIndex1
                  {
                    OFFSET 4.1246 0.487 4.1451
                    CHANNELS 6 Xposition Yposition Zposition Zrotation Xrotation Yrotation
                    JOINT lIndex2
                    {
                      OFFSET 3.4052 -1.454 2.7682
                      CHANNELS 6 Xposition Yposition Zposition Zrotation Xrotation Yrotation
                      JOINT lIndex2_End
                      {
                        OFFSET 1.4531 -1.795 1.2713
                        CHANNELS 6 Xposition Yposition Zposition Zrotation Xrotation Yrotation
                        End Site
                        {
                          OFFSET 0.0145 -0.0179 0.0127
                        }
                      }
                    }
                  }
                  JOINT lMid1
                  {
                    OFFSET 5.6954 0.21 2.1184
                    CHANNELS 6 Xposition Yposition Zposition Zrotation Xrotation Yrotation
                    JOINT lMid2
                    {
                      OFFSET 3.9766 -1.54 2.3863
                      CHANNELS 6 Xposition Yposition Zposition Zrotation Xrotation Yrotation
                      JOINT lMid2_End
                      {
                        OFFSET 1.4042 -1.926 1.125
                        CHANNELS 6 Xposition Yposition Zposition Zrotation Xrotation Yrotation
                        End Site
                        {
                          OFFSET 0.014 -0.0193 0.0113
                        }
                      }
                    }
                  }
                }
                JOINT lCarpal2
                {
                  OFFSET 2.0956 0.66 -0.3894
                  CHANNELS 6 Xposition Yposition Zposition Zrotation Xrotation Yrotation
                  JOINT lRing1
                  {
                    OFFSET 5.0395 -0.09 2.4971
                    CHANNELS 6 Xposition Yposition Zposition Zrotation Xrotation Yrotation
                    JOINT lRing2
                    {
                      OFFSET 3.7921 -1.552 1.4806
                      CHANNELS 6 Xposition Yposition Zposition Zrotation Xrotation Yrotation
                      JOINT lRing2_End
                      {
                        OFFSET 1.4655 -1.808 0.9609
                        CHANNELS 6 Xposition Yposition Zposition Zrotation Xrotation Yrotation
                        End Site
                        {
                          OFFSET 0.0147 -0.0181 0.0096
                        }
                      }
                    }
                  }
                  JOINT lPinky1
                  {
                    OFFSET 4.9141 -1.269 0.3591
                    CHANNELS 6 Xposition Yposition Zposition Zrotation Xrotation Yrotation
                    JOINT lPinky2
                    {
                      OFFSET 3.1477 -1.685 0.8462
                      CHANNELS 6 Xposition Yposition Zposition Zrotation Xrotation Yrotation
                      JOINT lPinky2_End
                      {
                        OFFSET 0.8055 -1.585 0.7955
                        CHANNELS 6 Xposition Yposition Zposition Zrotation Xrotation Yrotation
                        End Site
                        {
                          OFFSET 0.0081 -0.0158 0.008
                        }
                      }
                    }
                  }
                }
              }
            }
          }
        }
        JOINT rCollar
        {
          OFFSET -1.7069 20.075 5.0056
          CHANNELS 6 Xposition Yposition Zposition Zrotation Xrotation Yrotation
          JOINT rShldr
          {
            OFFSET -13.6458 -0.047 -4.849
            CHANNELS 6 Xposition Yposition Zposition Zrotation Xrotation Yrotation
            JOINT rForeArm
            {
              OFFSET -28.3255 -0.9759 2.2888
              CHANNELS 6 Xposition Yposition Zposition Zrotation Xrotation Yrotation
              JOINT rHand
              {
                OFFSET -22.1583 -0.53 10.8316
                CHANNELS 6 Xposition Yposition Zposition Zrotation Xrotation Yrotation
                JOINT rThumb1
                {
                  OFFSET -0.786 0.112 2.5817
                  CHANNELS 6 Xposition Yposition Zposition Zrotation Xrotation Yrotation
                  JOINT rThumb2
                  {
                    OFFSET -0.3601 -0.878 4.2331
                    CHANNELS 6 Xposition Yposition Zposition Zrotation Xrotation Yrotation
                    JOINT rThumb2_End
                    {
                      OFFSET -1.8127 -1.216 2.2227
                      CHANNELS 6 Xposition Yposition Zposition Zrotation Xrotation Yrotation
                      End Site
                      {
                        OFFSET -0.0181 -0.0122 0.0222
                      }
                    }
                  }
                }
                JOINT rCarpal1
                {
                  OFFSET -0.9571 1.114 1.7695
                  CHANNELS 6 Xposition Yposition Zposition Zrotation Xrotation Yrotation
                  JOINT rIndex1
                  {
                    OFFSET -4.1246 0.487 4.1451
                    CHANNELS 6 Xposition Yposition Zposition Zrotation Xrotation Yrotation
                    JOINT rIndex2
                    {
                      OFFSET -3.4052 -1.454 2.7682
                      CHANNELS 6 Xposition Yposition Zposition Zrotation Xrotation Yrotation
                      JOINT rIndex2_End
                      {
                        OFFSET -1.4531 -1.795 1.2713
                        CHANNELS 6 Xposition Yposition Zposition Zrotation Xrotation Yrotation
                        End Site
                        {
                          OFFSET -0.0145 -0.018 0.0127
                        }
                      }
                    }
                  }
                  JOINT rMid1
                  {
                    OFFSET -5.6954 0.21 2.1184
                    CHANNELS 6 Xposition Yposition Zposition Zrotation Xrotation Yrotation
                    JOINT rMid2
                    {
                      OFFSET -3.9766 -1.54 2.3863
                      CHANNELS 6 Xposition Yposition Zposition Zrotation Xrotation Yrotation
                      JOINT rMid2_End
                      {
                        OFFSET -1.4042 -1.926 1.125
                        CHANNELS 6 Xposition Yposition Zposition Zrotation Xrotation Yrotation
                        End Site
                        {
                          OFFSET -0.014 -0.0193 0.0113
                        }
                      }
                    }
                  }
                }
                JOINT rCarpal2
                {
                  OFFSET -2.0956 0.66 -0.3894
                  CHANNELS 6 Xposition Yposition Zposition Zrotation Xrotation Yrotation
                  JOINT rRing1
                  {
                    OFFSET -5.0395 -0.09 2.4971
                    CHANNELS 6 Xposition Yposition Zposition Zrotation Xrotation Yrotation
                    JOINT rRing2
                    {
                      OFFSET -3.7921 -1.552 1.4806
                      CHANNELS 6 Xposition Yposition Zposition Zrotation Xrotation Yrotation
                      JOINT rRing2_End
                      {
                        OFFSET -1.4655 -1.808 0.9609
                        CHANNELS 6 Xposition Yposition Zposition Zrotation Xrotation Yrotation
                        End Site
                        {
                          OFFSET -0.0147 -0.0181 0.0096
                        }
                      }
                    }
                  }
                  JOINT rPinky1
                  {
                    OFFSET -4.9141 -1.269 0.3592
                    CHANNELS 6 Xposition Yposition Zposition Zrotation Xrotation Yrotation
                    JOINT rPinky2
                    {
                      OFFSET -3.1477 -1.685 0.8462
                      CHANNELS 6 Xposition Yposition Zposition Zrotation Xrotation Yrotation
                      JOINT rPinky2_End
                      {
                        OFFSET -0.8055 -1.585 0.7955
                        CHANNELS 6 Xposition Yposition Zposition Zrotation Xrotation Yrotation
                        End Site
                        {
                          OFFSET -0.0081 -0.0158 0.008
                        }
                      }
                    }
                  }
                }
              }
            }
          }
        }
      }
    }
  }
  JOINT lThigh
  {
    OFFSET 8.367 -8.2066 0.5982
    CHANNELS 6 Xposition Yposition Zposition Zrotation Xrotation Yrotation
    JOINT lShin
    {
      OFFSET 2.1923 -43.463 -0.4932
      CHANNELS 6 Xposition Yposition Zposition Zrotation Xrotation Yrotation
      JOINT lFoot
      {
        OFFSET 0.7333 -45.8593 -2.6451
        CHANNELS 6 Xposition Yposition Zposition Zrotation Xrotation Yrotation
        End Site
        {
          OFFSET 2.6618 -4.2699 12.3931
        }
      }
    }
  }
  JOINT rThigh
  {
    OFFSET -8.367 -8.2066 0.5982
    CHANNELS 6 Xposition Yposition Zposition Zrotation Xrotation Yrotation
    JOINT rShin
    {
      OFFSET -2.1923 -43.463 -0.4931
      CHANNELS 6 Xposition Yposition Zposition Zrotation Xrotation Yrotation
      JOINT rFoot
      {
        OFFSET -0.7333 -45.8593 -2.6451
        CHANNELS 6 Xposition Yposition Zposition Zrotation Xrotation Yrotation
        End Site
        {
          OFFSET -2.6618 -4.2699 12.3931
        }
      }
    }
  }
}
MOTION
Frames:	4
Frame Time:	0.0333333
0 90.174 2.4664 0 0 -0 0 -1.186 -1.5018 0 0 -0 0 9.964 0.2134 0 0 -0 0 13.134 -3.2573 0 0 -0 0 20.686 -1.6905 0 0 -0 0 7.238 -0.1237 0 0 -0 1.7069 20.075 5.0056 0 0 -0 13.6458 -0.047 -4.849 1.66051 0.0835086 5.75766 28.3255 -0.9759 2.2888 -0.0175111 0.895433 15.7816 22.1583 -0.53 10.8316 7.95139e-016 -1.98785e-016 -0 0.786 0.112 2.5817 5.46658e-016 -3.97569e-016 -0 0.3601 -0.878 4.2331 5.96354e-016 0 -0 1.8127 -1.216 2.2227 3.97569e-016 1.98785e-016 9.54166e-015 0.9571 1.114 1.7695 1.49089e-016 -3.97569e-016 -0 4.1246 0.487 4.1451 6.4605e-016 0 3.18055e-015 3.4052 -1.454 2.7682 5.96354e-016 0 3.18055e-015 1.4531 -1.795 1.2713 8.94531e-016 -1.98785e-016 6.36111e-015 5.6954 0.21 2.1184 6.4605e-016 0 3.18055e-015 3.9766 -1.54 2.3863 5.96354e-016 0 3.18055e-015 1.4042 -1.926 1.125 8.94531e-016 -1.98785e-016 6.36111e-015 2.0956 0.66 -0.3894 1.49089e-016 -3.97569e-016 -0 5.0395 -0.09 2.4971 6.4605e-016 0 3.18055e-015 3.7921 -1.552 1.4806 5.96354e-016 0 3.18055e-015 1.4655 -1.808 0.9609 8.94531e-016 -1.98785e-016 6.36111e-015 4.9141 -1.269 0.3591 6.4605e-016 0 3.18055e-015 3.1477 -1.685 0.8462 5.96354e-016 0 3.18055e-015 0.8055 -1.585 0.7955 8.94531e-016 -1.98785e-016 6.36111e-015 -1.7069 20.075 5.0056 0 0 -0 -13.6458 -0.047 -4.849 -1.4496 0.0636048 -5.0245 -28.3255 -0.9759 2.2888 -1.74811 1.20616 -16.8394 -22.1583 -0.53 10.8316 -1.19271e-015 1.98785e-016 -3.18055e-015 -0.786 0.112 2.5817 -3.97569e-016 1.98785e-016 -3.18055e-015 -0.3601 -0.878 4.2331 -2.98177e-016 1.98785e-016 -3.18055e-015 -1.8127 -1.216 2.2227 -2.98177e-016 3.97569e-016 -0 -0.9571 1.114 1.7695 4.96962e-016 0 -6.36111e-015 -4.1246 0.487 4.1451 -9.93923e-017 3.97569e-016 -0 -3.4052 -1.454 2.7682 -8.94531e-016 5.96354e-016 -0 -1.4531 -1.795 1.2713 -3.97569e-016 3.97569e-016 -0 -5.6954 0.21 2.1184 -9.93923e-017 3.97569e-016 -0 -3.9766 -1.54 2.3863 -8.94531e-016 5.96354e-016 -0 -1.4042 -1.926 1.125 -3.97569e-016 3.97569e-016 -0 -2.0956 0.66 -0.3894 4.96962e-016 0 -6.36111e-015 -5.0395 -0.09 2.4971 -9.93923e-017 3.97569e-016 -0 -3.7921 -1.552 1.4806 -8.94531e-016 5.96354e-016 -0 -1.4655 -1.808 0.9609 -3.97569e-016 3.97569e-016 -0 -4.9141 -1.269 0.3592 -9.93923e-017 3.97569e-016 -0 -3.1477 -1.685 0.8462 -8.94531e-016 5.96354e-016 -0 -0.8055 -1.585 0.7955 -3.97569e-016 3.97569e-016 -0 8.367 -8.2066 0.5982 -4.66115 -1.03232 0.120763 2.1923 -43.463 -0.4932 0.00990601 1.55097 0.177175 0.7333 -45.8593 -2.6451 4.65196 -0.54114 -0.255042 -8.367 -8.2066 0.5982 4.66115 -1.03222 -0.120763 -2.1923 -43.463 -0.4931 -0.00990459 1.5509 -0.177176 -0.7333 -45.8593 -2.6451 -4.65196 -0.541171 0.255041 
44.8967 28.7203 28.4435 92.8129 89.9863 135.18 0 -1.186 -1.5018 7.24257 3.68085 3.89274 0 9.964 0.2134 14.2673 7.8163 7.31358 7.10543e-015 13.134 -3.2573 14.2673 7.8163 7.31357 1.06581e-014 20.686 -1.6905 -1.25055e-005 -0.508873 -1.99448e-005 0 7.238 -0.1237 1.97538e-006 -0.361958 1.86768e-005 1.7069 20.075 5.0056 10.5894 0.930087 38.097 13.6458 -0.047 -4.849 4.7037 31.1043 -27.487 28.3255 -0.9759 2.2888 43.4538 -32.8006 -34.9314 22.1583 -0.53 10.8316 -6.50091 11.8163 0.710795 0.786 0.112 2.5817 -2.64834e-031 -2.38542e-015 -6.36111e-015 0.3601 -0.878 4.2331 1.59028e-015 -7.95139e-016 3.18055e-015 1.8127 -1.216 2.2227 1.59028e-015 -2.38542e-015 -3.18055e-015 0.9571 1.114 1.7695 -7.95139e-016 -7.95139e-016 -6.36111e-015 4.1246 0.487 4.1451 1.59028e-015 -7.95139e-016 3.18055e-015 3.4052 -1.454 2.7682 7.95139e-016 -2.38542e-015 -3.18055e-015 1.4531 -1.795 1.2713 1.32417e-031 -2.38542e-015 3.18055e-015 5.6954 0.21 2.1184 1.59028e-015 -7.95139e-016 3.18055e-015 3.9766 -1.54 2.3863 7.95139e-016 -2.38542e-015 -3.18055e-015 1.4042 -1.926 1.125 1.32417e-031 -2.38542e-015 3.18055e-015 2.0956 0.66 -0.3894 -7.95139e-016 -7.95139e-016 -6.36111e-015 5.0395 -0.09 2.4971 1.59028e-015 -7.95139e-016 3.18055e-015 3.7921 -1.552 1.4806 7.95139e-016 -2.38542e-015 -3.18055e-015 1.4655 -1.808 0.9609 1.32417e-031 -2.38542e-015 3.18055e-015 4.9141 -1.269 0.3591 1.59028e-015 -7.95139e-016 3.18055e-015 3.1477 -1.685 0.8462 7.95139e-016 -2.38542e-015 -3.18055e-015 0.8055 -1.585 0.7955 1.32417e-031 -2.38542e-015 3.18055e-015 -1.7069 20.075 5.0056 28.4808 6.69331 19.2511 -13.6458 -0.047 -4.849 33.5575 -51.6818 -35.2761 -28.3255 -0.9759 2.2888 -0.449256 -14.0918 -16.2504 -22.1583 -0.53 10.8316 29.668 8.49572 -6.23391 -0.786 0.112 2.5817 -3.18055e-015 6.36111e-015 -0 -0.3601 -0.878 4.2331 2.37286e-007 5.63461e-007 -5.95429e-007 -1.8127 -1.216 2.2227 3.18055e-015 0 -6.36111e-015 -0.9571 1.114 1.7695 -1.59028e-015 6.36111e-015 -0 -4.1246 0.487 4.1451 -7.95139e-015 -3.18055e-015 6.36111e-015 -3.4052 -1.454 2.7682 2.37286e-007 5.63461e-007 -5.95429e-007 -1.4531 -1.795 1.2713 1.59028e-015 0 -6.36111e-015 -5.6954 0.21 2.1184 -7.95139e-015 -3.18055e-015 6.36111e-015 -3.9766 -1.54 2.3863 2.37286e-007 5.63461e-007 -5.95429e-007 -1.4042 -1.926 1.125 1.59028e-015 0 -6.36111e-015 -2.0956 0.66 -0.3894 -1.59028e-015 6.36111e-015 -0 -5.0395 -0.09 2.4971 -7.95139e-015 -3.18055e-015 6.36111e-015 -3.7921 -1.552 1.4806 2.37286e-007 5.63461e-007 -5.95429e-007 -1.4655 -1.808 0.9609 1.59028e-015 0 -6.36111e-015 -4.9141 -1.269 0.3592 -7.95139e-015 -3.18055e-015 6.36111e-015 -3.1477 -1.685 0.8462 2.37286e-007 5.63461e-007 -5.95429e-007 -0.8055 -1.585 0.7955 1.59028e-015 0 -6.36111e-015 8.367 -8.2066 0.5982 135.814 -44.0532 131.605 2.1923 -43.463 -0.4932 33.7638 64.5838 -29.8981 0.7333 -45.8593 -2.6451 -19.3201 17.177 11.6504 -8.367 -8.2066 0.5982 151.183 -34.3616 156.952 -2.1923 -43.463 -0.4931 79.6099 47.3103 -80.5674 -0.7333 -45.8593 -2.6451 -1.52624 16.8436 10.5938 
44.8963 28.7233 28.7523 92.8129 89.9863 135.18 0 -1.186 -1.5018 7.42082 3.72003 3.85433 0 9.964 0.2134 14.6259 7.90006 7.21918 -3.55271e-015 13.134 -3.2573 14.6259 7.90005 7.21917 3.55271e-015 20.686 -1.6905 -2.52738e-005 -1.00703 -5.08162e-005 7.10543e-015 7.238 -0.1237 -3.24233e-006 -0.718814 -1.79772e-005 1.7069 20.075 5.0056 9.21185 1.17287 37.693 13.6458 -0.047 -4.849 4.70371 31.1042 -27.487 28.3255 -0.9759 2.2888 43.2826 -32.5703 -34.6196 22.1583 -0.53 10.8316 -5.84947 11.8428 0.723982 0.786 0.112 2.5817 -2.02568e-007 6.54062e-008 1.49586e-008 0.3601 -0.878 4.2331 4.41391e-032 7.95139e-016 -3.18055e-015 1.8127 -1.216 2.2227 -2.02568e-007 6.54062e-008 1.49586e-008 0.9571 1.114 1.7695 -2.38542e-015 -7.95139e-016 -6.36111e-015 4.1246 0.487 4.1451 -2.02568e-007 6.54062e-008 1.49586e-008 3.4052 -1.454 2.7682 7.95139e-016 -7.95139e-016 -0 1.4531 -1.795 1.2713 -2.02568e-007 6.54062e-008 1.49586e-008 5.6954 0.21 2.1184 -2.02568e-007 6.54062e-008 1.49586e-008 3.9766 -1.54 2.3863 7.95139e-016 -7.95139e-016 -0 1.4042 -1.926 1.125 -2.02568e-007 6.54062e-008 1.49586e-008 2.0956 0.66 -0.3894 -2.38542e-015 -7.95139e-016 -6.36111e-015 5.0395 -0.09 2.4971 -2.02568e-007 6.54062e-008 1.49586e-008 3.7921 -1.552 1.4806 7.95139e-016 -7.95139e-016 -0 1.4655 -1.808 0.9609 -2.02568e-007 6.54062e-008 1.49586e-008 4.9141 -1.269 0.3591 -2.02568e-007 6.54062e-008 1.49586e-008 3.1477 -1.685 0.8462 7.95139e-016 -7.95139e-016 -0 0.8055 -1.585 0.7955 -2.02568e-007 6.54062e-008 1.49586e-008 -1.7069 20.075 5.0056 27.8661 6.69696 19.2711 -13.6458 -0.047 -4.849 33.4287 -51.6055 -35.1265 -28.3255 -0.9759 2.2888 -0.44925 -14.0918 -16.2504 -22.1583 -0.53 10.8316 29.4936 8.45846 -6.10741 -0.786 0.112 2.5817 2.38334e-007 5.63535e-007 -5.94948e-007 -0.3601 -0.878 4.2331 2.38334e-007 5.63535e-007 -5.94948e-007 -1.8127 -1.216 2.2227 1.59028e-015 6.36111e-015 6.36111e-015 -0.9571 1.114 1.7695 0 6.36111e-015 -0 -4.1246 0.487 4.1451 2.38334e-007 5.63535e-007 -5.94948e-007 -3.4052 -1.454 2.7682 2.38334e-007 5.63535e-007 -5.94948e-007 -1.4531 -1.795 1.2713 -5.29669e-031 3.18055e-015 9.54166e-015 -5.6954 0.21 2.1184 2.38334e-007 5.63535e-007 -5.94948e-007 -3.9766 -1.54 2.3863 2.38334e-007 5.63535e-007 -5.94948e-007 -1.4042 -1.926 1.125 -5.29669e-031 3.18055e-015 9.54166e-015 -2.0956 0.66 -0.3894 0 6.36111e-015 -0 -5.0395 -0.09 2.4971 2.38334e-007 5.63535e-007 -5.94948e-007 -3.7921 -1.552 1.4806 2.38334e-007 5.63535e-007 -5.94948e-007 -1.4655 -1.808 0.9609 -5.29669e-031 3.18055e-015 9.54166e-015 -4.9141 -1.269 0.3592 2.38334e-007 5.63535e-007 -5.94948e-007 -3.1477 -1.685 0.8462 2.38334e-007 5.63535e-007 -5.94948e-007 -0.8055 -1.585 0.7955 -5.29669e-031 3.18055e-015 9.54166e-015 8.367 -8.2066 0.5982 135.346 -43.985 131.567 2.1923 -43.463 -0.4932 33.7624 64.5834 -29.9019 0.7333 -45.8593 -2.6451 -19.0156 17.0771 11.2816 -8.367 -8.2066 0.5982 150.591 -34.015 157.171 -2.1923 -43.463 -0.4931 79.6209 47.3107 -80.5654 -0.7333 -45.8593 -2.6451 -0.816114 16.5324 9.96297 
44.8958 28.7261 29.061 92.778 89.9863 135.215 0 -1.186 -1.5018 7.59918 3.75915 3.8159 -7.10543e-015 9.964 0.2134 14.9849 7.98341 7.1245 -3.55271e-015 13.134 -3.2573 14.9849 7.98342 7.12452 0 20.686 -1.6905 -2.38218e-005 -1.50559 1.95297e-006 0 7.238 -0.1237 -3.16325e-006 -1.07595 2.36822e-006 1.7069 20.075 5.0056 7.83229 1.42598 37.2939 13.6458 -0.047 -4.849 4.70372 31.1042 -27.487 28.3255 -0.9759 2.2888 43.1103 -32.3407 -34.3077 22.1583 -0.53 10.8316 -5.19764 11.8693 0.736857 0.786 0.112 2.5817 -2.02581e-007 6.5282e-008 1.52498e-008 0.3601 -0.878 4.2331 -4.05162e-007 1.30564e-007 3.04996e-008 1.8127 -1.216 2.2227 -2.02581e-007 6.5282e-008 1.52498e-008 0.9571 1.114 1.7695 1.59028e-015 0 6.36111e-015 4.1246 0.487 4.1451 -2.02581e-007 6.5282e-008 1.52498e-008 3.4052 -1.454 2.7682 -4.05162e-007 1.30564e-007 3.04996e-008 1.4531 -1.795 1.2713 -2.02581e-007 6.5282e-008 1.52498e-008 5.6954 0.21 2.1184 -2.02581e-007 6.5282e-008 1.52498e-008 3.9766 -1.54 2.3863 -4.05162e-007 1.30564e-007 3.04996e-008 1.4042 -1.926 1.125 -2.02581e-007 6.5282e-008 1.52498e-008 2.0956 0.66 -0.3894 1.59028e-015 0 6.36111e-015 5.0395 -0.09 2.4971 -2.02581e-007 6.5282e-008 1.52498e-008 3.7921 -1.552 1.4806 -4.05162e-007 1.30564e-007 3.04996e-008 1.4655 -1.808 0.9609 -2.02581e-007 6.5282e-008 1.52498e-008 4.9141 -1.269 0.3591 -2.02581e-007 6.5282e-008 1.52498e-008 3.1477 -1.685 0.8462 -4.05162e-007 1.30564e-007 3.04996e-008 0.8055 -1.585 0.7955 -2.02581e-007 6.5282e-008 1.52498e-008 -1.7069 20.075 5.0056 27.2511 6.70042 19.2911 -13.6458 -0.047 -4.849 33.2998 -51.5294 -34.9769 -28.3255 -0.9759 2.2888 -0.449248 -14.0918 -16.2504 -22.1583 -0.53 10.8316 29.3193 8.4208 -5.98104 -0.786 0.112 2.5817 2.3938e-007 5.6361e-007 -5.94464e-007 -0.3601 -0.878 4.2331 2.3938e-007 5.6361e-007 -5.94464e-007 -1.8127 -1.216 2.2227 2.3938e-007 5.6361e-007 -5.94464e-007 -0.9571 1.114 1.7695 -1.59028e-015 3.18055e-015 -0 -4.1246 0.487 4.1451 2.3938e-007 5.6361e-007 -5.94464e-007 -3.4052 -1.454 2.7682 2.3938e-007 5.6361e-007 -5.94464e-007 -1.4531 -1.795 1.2713 2.3938e-007 5.6361e-007 -5.94464e-007 -5.6954 0.21 2.1184 2.3938e-007 5.6361e-007 -5.94464e-007 -3.9766 -1.54 2.3863 2.3938e-007 5.6361e-007 -5.94464e-007 -1.4042 -1.926 1.125 2.3938e-007 5.6361e-007 -5.94464e-007 -2.0956 0.66 -0.3894 -1.59028e-015 3.18055e-015 -0 -5.0395 -0.09 2.4971 2.3938e-007 5.6361e-007 -5.94464e-007 -3.7921 -1.552 1.4806 2.3938e-007 5.6361e-007 -5.94464e-007 -1.4655 -1.808 0.9609 2.3938e-007 5.6361e-007 -5.94464e-007 -4.9141 -1.269 0.3592 2.3938e-007 5.6361e-007 -5.94464e-007 -3.1477 -1.685 0.8462 2.3938e-007 5.6361e-007 -5.94464e-007 -0.8055 -1.585 0.7955 2.3938e-007 5.6361e-007 -5.94464e-007 8.367 -8.2066 0.5982 134.879 -43.9165 131.53 2.1923 -43.463 -0.4932 33.7614 64.5834 -29.9063 0.7333 -45.8593 -2.6451 -18.7118 16.9751 10.9133 -8.367 -8.2066 0.5982 150 -33.67 157.394 -2.1923 -43.463 -0.4931 79.6315 47.311 -80.5627 -0.7333 -45.8593 -2.6451 -0.110152 16.2137 9.33648 
